# xmcd
#
# Track frame offsets: 
#        150
#        22117
#        36389
#        56488
#        75553
#        92909
#        106660
#        122731
#        140047
#        159204
#        181435
#        205471
#        221892
#        234927
#        250863
#        263342
#        275329
#        289969
#        320860
#
# Disc length: 4593 seconds
#
# Revision: 0
# Processed by: cddbd v1.4PL0 Copyright (c) Steve Scherf et al.
# Submitted via: ExactAudioCopy v0.90b4
#
DISCID=1911ef13
DTITLE=Jerry Jeff Walker - Too Old To Change and Jerry Jeff
DYEAR=2003
DGENRE=
TTITLE0=Too Old To Change
TTITLE1=I Ain't Living Long Like This
TTITLE2=I'll Be Your San Antone Rose
TTITLE3=Old Nashville Cowboy
TTITLE4=Hands On The Wheel
TTITLE5=Cross The Borderline
TTITLE6=Mountains Of Mexico
TTITLE7=Then Came The Children
TTITLE8=Northeast Texas Women
TTITLE9=Me And Bobby McGee
TTITLE10=Eastern Avenue River Railway Blues
TTITLE11=Lone Wolf
TTITLE12=Bad News
TTITLE13=Boogie Mama
TTITLE14=I'm Not Strange
TTITLE15=Her Good Lovin' Grace
TTITLE16=Comfort And Crazy
TTITLE17=Follow
TTITLE18=Banks Of The Old Bandera
EXTD=
EXTT0=
EXTT1=
EXTT2=
EXTT3=
EXTT4=
EXTT5=
EXTT6=
EXTT7=
EXTT8=
EXTT9=
EXTT10=
EXTT11=
EXTT12=
EXTT13=
EXTT14=
EXTT15=
EXTT16=
EXTT17=
EXTT18=
PLAYORDER=
